# xmcd
#
# Track frame offsets:
#	150
#	18046
#	36326
#	49105
#	67910
#	80331
#	91569
#	111001
#
# Disc length: 1649 seconds
#
# Revision: 0
# Processed by: cddbd v1.5.2PL0 Copyright (c) Steve Scherf et al.
# Submitted via: MuRip/1.0beta +https://www.muman.ch
#
DISCID=50066f08
DTITLE=Contagious Blues Band - Ride
DYEAR=2007
DGENRE=Blues
TTITLE0=Bent But Not Broken
TTITLE1=Ride
TTITLE2=Hard To Make
TTITLE3=Blind Crippled and Crazy
TTITLE4=Heavy Weather
TTITLE5=Silver Spoon
TTITLE6=No Excuses
TTITLE7=To The Top
EXTD=Barcode: 8 37101 41446 3
EXTT0=
EXTT1=
EXTT2=
EXTT3=
EXTT4=
EXTT5=
EXTT6=
EXTT7=
PLAYORDER=
